# xmcd
#
# Track frame offsets: 
#        151
#        33627
#        56295
#        77154
#        87464
#        105026
#        120412
#        168309
#        191576
#        218525
#        234441
#
# Disc length: 3448 seconds
#
# Revision: 0
# Processed by: cddbd v1.5.2PL0 Copyright (c) Steve Scherf et al.
# Submitted via: ExactAudioCopy v0.95b4
#
DISCID=7e0d760b
DTITLE=Bo Diddley - Bo's The Man (Bo Diddley Live On Tour)
DYEAR=2006
DGENRE=Rock and Roll
TTITLE0=Into_Bo Diddley Vamp
TTITLE1=Doctor Jekyll
TTITLE2=Everleen
TTITLE3=I Don't Know Where I've Been
TTITLE4=You Can't Judge A Book
TTITLE5=Roadrunner
TTITLE6=I'm A Man
TTITLE7=Mona
TTITLE8=Don't Know Where I 've Been
TTITLE9=Juke
TTITLE10=Sad Hours
EXTD=
EXTT0=
EXTT1=
EXTT2=
EXTT3=
EXTT4=
EXTT5=
EXTT6=
EXTT7=
EXTT8=
EXTT9=
EXTT10=
PLAYORDER=
